<mxfile host="app.diagrams.net" modified="2023-11-03T02:28:18.175Z" agent="Mozilla/5.0 (Windows NT 10.0; Win64; x64) AppleWebKit/537.36 (KHTML, like Gecko) Chrome/118.0.0.0 Safari/537.36 Edg/118.0.2088.76" etag="68FDtvORlinOretfigel" version="22.0.8" type="github">
  <diagram name="第 1 页" id="w6beiX0lcbzYnhqRx0_q">
    <mxGraphModel dx="1120" dy="793" grid="1" gridSize="10" guides="1" tooltips="1" connect="1" arrows="1" fold="1" page="1" pageScale="1" pageWidth="1169" pageHeight="827" math="0" shadow="0">
      <root>
        <mxCell id="0" />
        <mxCell id="1" parent="0" />
        <mxCell id="y09sBYto5wZh4Uca6OKV-1" value="" style="swimlane;startSize=0;fillColor=#e1d5e7;strokeColor=#A6080E;" parent="1" vertex="1">
          <mxGeometry x="200" y="190" width="580" height="370" as="geometry">
            <mxRectangle x="200" y="190" width="50" height="40" as="alternateBounds" />
          </mxGeometry>
        </mxCell>
        <mxCell id="y09sBYto5wZh4Uca6OKV-2" value="&lt;font style=&quot;font-size: 16px;&quot;&gt;quota-convert-rpa&lt;br&gt;指标库rpa计价文件导出服务&lt;/font&gt;" style="rounded=0;whiteSpace=wrap;html=1;fillColor=#fff2cc;strokeColor=#d6b656;" parent="y09sBYto5wZh4Uca6OKV-1" vertex="1">
          <mxGeometry x="20" y="75" width="230" height="70" as="geometry" />
        </mxCell>
        <mxCell id="y09sBYto5wZh4Uca6OKV-3" value="&lt;font style=&quot;font-size: 16px;&quot;&gt;exe&lt;br&gt;用python编写的rpa流程自动化程序&lt;/font&gt;" style="rounded=0;whiteSpace=wrap;html=1;fillColor=#fff2cc;strokeColor=#d6b656;" parent="y09sBYto5wZh4Uca6OKV-1" vertex="1">
          <mxGeometry x="300" y="80" width="260" height="65" as="geometry" />
        </mxCell>
        <mxCell id="y09sBYto5wZh4Uca6OKV-4" value="" style="html=1;verticalLabelPosition=bottom;align=center;labelBackgroundColor=#ffffff;verticalAlign=top;strokeWidth=2;strokeColor=#6c8ebf;shadow=0;dashed=0;shape=mxgraph.ios7.icons.storage;fillColor=#dae8fc;" parent="y09sBYto5wZh4Uca6OKV-1" vertex="1">
          <mxGeometry x="190" y="260" width="150" height="60.5" as="geometry" />
        </mxCell>
        <mxCell id="y09sBYto5wZh4Uca6OKV-6" value="" style="endArrow=classic;html=1;entryX=0.34;entryY=0;entryDx=0;entryDy=0;entryPerimeter=0;exitX=0.5;exitY=1;exitDx=0;exitDy=0;curved=1;" parent="y09sBYto5wZh4Uca6OKV-1" source="y09sBYto5wZh4Uca6OKV-2" target="y09sBYto5wZh4Uca6OKV-4" edge="1">
          <mxGeometry width="50" height="50" relative="1" as="geometry">
            <mxPoint x="130" y="160" as="sourcePoint" />
            <mxPoint x="180" y="110" as="targetPoint" />
            <Array as="points">
              <mxPoint x="140" y="200" />
            </Array>
          </mxGeometry>
        </mxCell>
        <mxCell id="y09sBYto5wZh4Uca6OKV-7" value="" style="endArrow=classic;html=1;exitX=0.5;exitY=1;exitDx=0;exitDy=0;entryX=0.72;entryY=-0.033;entryDx=0;entryDy=0;entryPerimeter=0;curved=1;" parent="y09sBYto5wZh4Uca6OKV-1" source="y09sBYto5wZh4Uca6OKV-3" target="y09sBYto5wZh4Uca6OKV-4" edge="1">
          <mxGeometry width="50" height="50" relative="1" as="geometry">
            <mxPoint x="410" y="190" as="sourcePoint" />
            <mxPoint x="460" y="140" as="targetPoint" />
            <Array as="points">
              <mxPoint x="410" y="180" />
            </Array>
          </mxGeometry>
        </mxCell>
        <mxCell id="y09sBYto5wZh4Uca6OKV-8" value="对服务器上的指定目录进行操作" style="text;html=1;strokeColor=none;fillColor=none;align=center;verticalAlign=middle;whiteSpace=wrap;rounded=0;" parent="y09sBYto5wZh4Uca6OKV-1" vertex="1">
          <mxGeometry x="170" y="170" width="200" height="40" as="geometry" />
        </mxCell>
      </root>
    </mxGraphModel>
  </diagram>
</mxfile>
